<svg width="250" height="115" viewBox="0 0 250 115" fill="none" xmlns="http://www.w3.org/2000/svg">
<path d="M45.9115 0.150243C31.9775 1.60722 18.176 8.12387 8.85133 17.6339C1.38102 25.2897 -1.85081 34.7998 1.06314 40.6277C1.9903 42.4555 4.42743 44.7337 6.06984 45.29C7.47383 45.7668 8.71888 45.8463 8.9573 45.4489C9.03677 45.3165 8.71888 44.4423 8.26854 43.5416C7.47383 42.0317 7.39436 41.6343 7.39436 39.4886C7.34138 28.7864 17.9376 15.3823 31.7391 8.65368C37.4345 5.87218 42.6797 4.46819 48.4281 4.20328C56.4547 3.83242 61.6468 6.45497 63.7131 11.9385C64.5078 14.0048 64.5608 18.1638 63.819 20.9453C62.3091 26.6672 58.5474 32.6011 52.9315 38.1111C47.9248 43.0648 41.1167 47.6476 35.6597 49.7139C35.0769 49.9258 35.0239 49.8993 35.1829 49.3695C35.4478 48.4953 40.7723 34.2435 43.5803 26.9321C46.8387 18.4551 47.4479 15.8061 46.6532 14.0577C46.3883 13.4485 46.2029 13.369 45.5406 13.4749C44.6135 13.6339 38.5736 15.4352 38.2028 15.6737C38.0703 15.7531 37.9643 16.2564 37.9643 16.7863C37.9643 17.3425 37.3816 19.4353 36.6663 21.4751C35.3683 25.2102 28.1894 44.2039 26.335 48.8927L25.3284 51.4093L24.4542 51.3298C23.3151 51.2503 21.6197 50.2967 20.9575 49.396C20.1363 48.2834 20.2687 46.4291 21.2489 44.9986C22.335 43.4621 22.335 42.9323 21.2224 43.1707C19.1031 43.5946 17.2223 46.3761 17.2223 49.1311C17.2223 49.9788 17.4078 50.9589 17.6462 51.4358C18.3614 52.8398 20.2952 54.3232 22.0436 54.853C23.1562 55.1709 23.6595 55.4623 23.6595 55.7537C23.6595 55.9921 22.5734 59.0915 21.2489 62.6677C16.5071 75.4891 14.3613 81.5819 14.3349 82.4296C14.2819 83.9131 14.7587 84.2045 16.9044 83.9925C19.3151 83.7541 21.7787 82.9329 22.4939 82.1382C23.1562 81.423 23.1032 81.5819 28.6662 66.5618C30.9974 60.3101 32.9312 55.1444 33.0106 55.0915C33.0636 55.012 34.2027 54.6676 35.5272 54.3232C52.5341 49.7669 69.2231 35.6475 72.9318 22.6671C73.7265 19.8856 73.9119 15.4352 73.3556 13.0246C71.7927 6.40199 66.2562 1.95159 57.7792 0.5476C54.7063 0.044281 48.8784 -0.167643 45.9115 0.150243Z" fill="#FF0000"/>
<path d="M209.225 13.0246C197.543 14.2696 190.788 15.5942 175.715 19.7002C159.635 24.0711 153.675 25.4221 143.396 27.038C139.105 27.7268 130.522 27.8857 127.793 27.3294C124.641 26.6937 122.919 25.9784 121.012 24.5214C120.111 23.8062 119.264 23.3029 119.184 23.3824C118.866 23.7267 119.025 26.9586 119.422 27.8857C120.562 30.6142 123.211 32.9454 126.601 34.2169C133.383 36.76 146.628 35.7269 163.264 31.3825C164.933 30.9321 170.787 29.2632 176.271 27.6738C197.543 21.5015 205.596 19.7532 215 19.3293C224.696 18.8525 234.153 21.2101 239.424 25.3956C244.113 29.1043 246.365 33.7136 246.63 40.1508C246.789 44.3628 246.365 46.5615 244.696 49.9523C243.663 52.045 243.053 52.8397 241.04 54.8795C238.735 57.1842 235.159 59.7008 234.762 59.2769C234.656 59.171 234.126 57.4756 233.57 55.5153C232.51 51.6477 232.272 48.9986 232.881 47.2767C233.067 46.7469 233.941 45.5814 234.788 44.6807C236.484 42.9588 236.669 42.429 235.927 41.1839C235.345 40.2038 234.259 39.7799 232.802 39.9919C231.265 40.1773 230.285 40.7071 229.119 41.8992C228.086 42.9588 227.557 43.9654 225.225 49.4225C223.08 54.4557 221.676 57.2372 219.027 61.7405C216.563 65.8995 214.709 68.4956 213.728 69.1314C211.583 70.5354 212.219 67.1711 215.954 57.1577C217.755 52.3099 217.835 51.992 217.464 51.4093C217.093 50.8265 216.139 50.4556 214.523 50.1642C214.152 50.1112 213.967 49.7933 213.808 48.9456C213.331 46.1641 211.53 44.7866 208.563 44.9721C205.94 45.1045 203.848 46.2436 201.384 48.8132C199 51.3298 197.94 52.9192 195.45 57.6345C192.324 63.5949 188.112 69.5552 187.026 69.5552C186.443 69.5552 186.046 68.9724 186.046 68.1512C186.046 66.8797 187.45 63.118 190.02 57.3961C191.371 54.4292 192.536 51.5417 192.589 51.0119C192.775 49.7404 192.086 48.5218 190.92 47.9655C189.808 47.4357 189.649 47.4622 187.45 48.2039C184.933 49.0516 183.264 49.343 183.476 48.8662C183.556 48.6542 183.98 47.6476 184.43 46.6145C186.046 42.8263 186.337 40.4687 185.251 39.8859C184.536 39.515 182.947 39.568 182.099 39.9919C181.013 40.5747 179.185 42.6674 178.576 44.0714C177.145 47.2767 176.986 49.4755 178.019 51.5152L178.708 52.9457L177.728 54.959C176.324 57.7935 173.331 62.5352 171.052 65.5552C168.721 68.6545 166.364 71.2241 166.522 70.4824C166.681 69.8996 168.854 63.6478 171.927 55.1179C174.814 47.0118 174.973 46.5615 174.655 45.9522C174.496 45.6873 174.046 45.3694 173.648 45.2635C172.668 45.0251 169.648 45.5814 168.88 46.1641C168.456 46.482 167.768 47.939 166.681 50.747C164.774 55.7007 162.734 59.9657 160.562 63.6478C158.814 66.5618 156.509 69.2903 155.767 69.2903C154.072 69.2903 154.867 66.0055 159.45 54.1643C162.125 47.1973 162.125 47.1708 161.542 46.5085C160.695 45.5814 157.039 45.8992 155.767 46.9853C155.185 47.4887 154.708 48.5748 152.906 53.3166C151.767 56.363 151.105 57.608 148.986 60.8134C144.906 66.9856 141.436 70.1645 138.443 70.5354C137.224 70.6678 137.039 70.6148 136.217 69.8731C135.343 69.0784 135.317 69.0254 135.237 66.6942L135.131 64.3366L137.224 63.6214C143.131 61.5286 148.112 56.2305 148.933 51.1444C149.648 46.641 147.317 44.2303 142.893 44.9456C138.655 45.6078 133.86 50.1907 131.052 56.31C128.615 61.6081 124.111 68.3102 122.442 69.1843C120.403 70.2175 120.72 68.0453 123.661 60.8134C124.932 57.714 126.178 54.2702 126.469 53.1841C127.078 50.7205 127.105 48.2834 126.495 47.0383C125.913 45.8463 124.509 44.9191 123.29 44.9191C121.038 44.9191 117.701 47.4357 115.449 50.8C114.893 51.6477 114.416 52.3364 114.389 52.3364C114.363 52.3364 114.389 51.4093 114.469 50.2437C114.681 46.6675 113.78 45.184 111.263 44.9721C110.124 44.8926 109.594 44.9986 108.535 45.5284C106.945 46.3496 104.614 48.7602 102.522 51.8066C101.647 53.0517 101.038 53.8199 101.118 53.5285C101.197 53.2371 101.621 51.8331 102.071 50.3761C103.422 45.9522 103.104 45.3694 99.6341 45.9257C96.985 46.3231 96.5347 46.7204 95.687 49.5814C93.9916 55.2504 91.7664 59.7273 87.9253 65.1843C82.4948 72.8665 80.0841 70.1115 82.2563 58.7206C82.7597 55.9656 82.7597 55.9391 84.3756 54.2172C90.3094 47.7536 98.389 34.6673 101.012 27.3029C102.786 22.2433 103.422 17.3425 102.495 15.5412C101.144 12.9451 97.2499 13.3954 93.9386 16.5478C88.0048 22.2168 79.7662 39.6475 76.6404 53.1311C75.7397 57.1047 75.0244 58.6941 72.3224 63.0121C69.5939 67.436 67.5012 69.8201 66.7859 69.3963C66.415 69.1579 66.574 67.33 67.1038 65.3432C67.3952 64.2836 68.5343 61.0253 69.6204 58.1378C70.7065 55.2239 71.6072 52.4954 71.6072 52.045C71.6072 51.1179 70.3621 50.2172 69.0376 50.2172C68.3224 50.2172 68.1369 50.1112 68.0045 49.4755C67.6336 47.6741 66.9978 46.4555 66.0972 45.7668C65.2495 45.131 64.9316 45.0515 63.0243 45.0515C60.0308 45.0515 58.4414 45.8463 55.448 48.8927C50.7327 53.6609 47.3684 61.1577 47.0505 67.6214C46.8651 71.3566 47.183 72.6546 48.6929 74.244C49.8055 75.4096 50.3353 75.5685 52.4016 75.4096C54.2824 75.2507 56.8255 73.1844 58.7858 70.2175L59.8189 68.6545L59.9779 70.6413C60.0573 71.7274 60.3222 72.999 60.5871 73.4758C61.1699 74.6149 62.468 75.3831 63.7925 75.3831C66.6005 75.3566 69.382 72.7871 73.2761 66.5883L74.7066 64.3101L74.8655 66.7207C75.2629 72.6281 77.0377 75.3831 80.349 75.3831C81.0113 75.3831 82.0444 75.1447 82.6802 74.8533C84.0842 74.2175 86.8657 71.595 88.1902 69.6612C88.7465 68.8665 89.2233 68.2572 89.2498 68.3102C89.3028 68.3631 88.9849 69.4493 88.5876 70.7473C87.5014 74.1381 87.475 74.4295 87.8723 75.0123C88.4286 75.7275 91.9518 75.701 93.4618 74.9858C94.4419 74.4824 94.5744 74.2705 95.8989 70.8797C99.6871 61.3432 105.435 51.2768 107.157 51.2768C108.111 51.2768 107.793 52.7868 105.541 58.6412C102.363 66.8532 100.482 72.4957 100.482 73.7407C100.482 74.5884 101.568 74.9328 103.74 74.7738C106.707 74.5354 106.998 74.2175 108.561 70.085C110.84 64.0452 113.303 58.9855 116.032 54.8265C117.754 52.204 118.628 51.2768 119.449 51.2768C120.482 51.2768 120.244 52.3099 117.833 58.2968C114.787 65.7671 114.416 67.0386 114.416 69.9526C114.389 72.6811 114.813 73.7407 116.376 74.7738C119.078 76.6282 122.893 74.4824 126.548 69.1049C128.27 66.5883 128.297 66.5618 128.297 67.5155C128.297 68.8665 128.8 71.1182 129.356 72.2043C131.211 75.8335 136.217 76.6282 140.747 73.9791C142.231 73.1314 146.072 69.5022 147.529 67.5949L148.324 66.5883V69.6347C148.297 72.3367 148.35 72.7871 148.853 73.4228C149.833 74.7473 150.708 75.2242 152.085 75.1977C154.39 75.1712 156.456 73.7142 158.893 70.4029C159.767 69.2108 160.509 68.2837 160.536 68.3367C160.615 68.3896 158.496 74.0321 157.94 75.2242C157.622 75.8864 156.668 76.4427 151.873 78.7474C144.509 82.2971 141.939 83.6216 139.025 85.317C127.396 92.1251 121.807 101.132 124.588 108.549C125.78 111.728 128.376 113.609 132.164 114.033C141.012 115.066 149.622 107.781 157.277 92.7609C159.026 89.2906 163.397 79.3567 164.35 76.6282C164.589 75.9394 165.171 75.2772 166.099 74.5354C168.218 72.9195 171.927 68.9194 173.913 66.085C175.662 63.6214 177.781 60.0716 179.927 55.9126L181.039 53.7934L183.079 53.6609C184.192 53.5815 185.145 53.502 185.172 53.5285C185.198 53.5285 184.298 55.3828 183.158 57.6345C180.827 62.3498 179.847 65.0518 179.423 68.1777C178.788 72.8135 180.245 75.3831 183.529 75.3831C185.887 75.3831 188.112 73.7937 190.894 70.1115L192.801 67.6214L192.96 69.7142C193.198 72.9725 194.311 74.8268 196.351 75.3566C199.026 76.0719 201.967 74.244 204.722 70.1645L205.834 68.4691L205.967 70.5354C206.099 72.9195 206.629 74.1116 207.848 74.8533C209.464 75.8599 211.609 75.4096 213.755 73.6612C216.192 71.648 220.192 65.4757 224.325 57.3166L226.709 52.6013L227.027 55.2239C227.212 56.6544 227.53 58.8796 227.742 60.1511L228.113 62.4558L227.345 62.8796C226.921 63.1445 225.861 63.7538 224.96 64.2571C222.974 65.3962 220.828 67.4625 220.192 68.8665C219.53 70.3234 219.556 72.4692 220.219 73.7672C222.126 77.5553 229.808 76.9461 233.093 72.7606C234.868 70.4824 235.398 68.893 235.451 65.3697L235.53 62.3498L237.729 61.0253C243.61 57.5021 247.265 53.2106 249.173 47.5681C249.994 45.131 250.02 44.9191 249.994 40.5482C249.994 36.7335 249.914 35.7269 249.411 33.9256C248.193 29.5811 246.073 26.0844 242.656 22.7466C237.649 17.8458 230.921 14.773 222.603 13.5279C219.874 13.1305 211.318 12.8127 209.225 13.0246ZM99.5281 20.8128C99.5016 23.7532 95.74 32.4686 91.2631 39.8859C89.4353 42.9323 85.6471 48.5483 85.1968 48.9456C84.7994 49.2635 84.7994 49.2105 84.9584 48.4953C85.3292 47.0383 89.3028 36.6011 90.9452 32.8659C94.4155 24.9718 97.7797 19.3558 98.9718 19.5412C99.4751 19.6207 99.5546 19.7796 99.5281 20.8128ZM145.198 49.7668C145.41 51.6742 143.555 55.3034 141.118 57.7405C139.873 59.012 136.959 61.0783 136.429 61.0783C136.032 61.0783 136.456 59.7802 137.727 57.1312C140.032 52.2834 142.893 48.7602 144.403 48.9456C144.959 48.9986 145.145 49.1841 145.198 49.7668ZM64.8256 49.5814C65.4614 50.2172 65.5938 51.1708 65.17 51.992C64.9581 52.3894 64.3223 53.9258 63.766 55.3828C61.1434 62.2968 56.6136 69.5552 54.9182 69.5552C51.8188 69.5552 56.0308 56.1246 60.7196 51.1708C62.4945 49.2635 63.9514 48.7072 64.8256 49.5814ZM210.603 49.3695C211.344 49.8463 211.503 51.0119 210.973 52.2834C210.709 52.9722 210.073 54.5351 209.596 55.7802C208.589 58.4557 206.788 62.1114 205.331 64.4955C202.92 68.4956 201.172 70.085 200.192 69.2638C199.477 68.681 199.821 65.2108 200.96 61.8465C203.636 53.8729 208.271 47.886 210.603 49.3695ZM228.351 67.1446C228.139 68.8665 227.212 71.0387 226.364 71.6745C225.411 72.4427 224.245 72.3632 223.874 71.542C223.503 70.6943 224.166 68.8665 225.199 67.9128C226.073 67.0916 227.927 65.8466 228.272 65.8466C228.404 65.8466 228.431 66.4293 228.351 67.1446ZM155.238 81.7938C154.31 84.072 150.39 91.7012 148.641 94.6152C144.112 102.165 139.529 106.96 135.396 108.549C133.86 109.132 131.211 109.185 130.204 108.655C125.86 106.403 127.634 99.0656 133.939 93.2377C135.873 91.4363 139.078 89.0257 141.383 87.6482C143.476 86.3767 155.079 80.4428 155.502 80.4163C155.714 80.4163 155.635 80.8666 155.238 81.7938Z" fill="#FF0000"/>
</svg>
