<svg width="788" height="788" viewBox="0 0 788 788" fill="none" xmlns="http://www.w3.org/2000/svg">
<g clip-path="url(#clip0_41_2)">
<rect width="788" height="788" fill="#FF0000"/>
<path d="M0 394V788H394H788V394V-1.40667e-05H394H0V394ZM477.2 38.6667C488 44.4 485.867 83.0667 472.8 120.4C463.867 145.6 401.2 318 397.467 327.867L394.533 334.933L400.933 330.267C410.4 323.467 427.733 315.2 440.933 311.2C463.067 304.533 498.933 305.333 511.467 312.667C524.133 320.133 534.4 336.267 537.467 354.133C539.6 366.267 538.267 386.8 534.267 402.667C532.533 409.6 513.867 462 492.667 519.2C456.533 616.933 454.267 623.6 453.733 633.867C452.533 651.2 456.4 654.533 468.267 646.667C482.4 637.333 502 613.333 532.533 568.267C562.667 524 581.067 490.8 586.533 471.067C588 465.733 590.267 459.6 591.6 457.333C594.4 452.4 601.067 448 605.467 448C612.933 448 623.067 458 625.067 467.467C626.4 473.6 626.133 474.4 610.267 502C572.133 568.8 530.267 633.733 509.467 658.667C501.467 668.133 480 688.667 470.667 695.6C435.6 721.867 386.133 720.4 369.867 692.533C368 689.333 365.6 683.867 364.533 680.4C361.867 671.733 362 648.4 364.667 635.333C369.2 613.467 384.667 570.4 417.333 488.667C446.533 415.467 446.933 414.133 447.733 390.4L448.267 370.667L445.2 369.467C437.867 366.8 418.133 377.733 402.667 393.333C384.133 412 374.533 429.867 343.067 505.333C324.933 548.8 294.267 624.933 270.4 686C260.133 712.267 252 731.2 250.267 732.933C246.8 736.267 221.2 746.4 210 748.8C205.6 749.733 195.2 750.533 186.933 750.667H171.733L167.067 746L162.267 741.2L163.067 730.933C163.6 722.667 166 714.267 175.067 688C190.4 644 224 551.067 268.667 429.333C333.733 252.267 345.467 219.733 352.667 198.667C356.533 187.333 363.6 167.467 368.4 154.533C384 113.067 390.133 90.8 391.6 70.2666L392.4 60L397.2 58.6667C399.867 58 411.867 54.9333 424 51.8667C448 45.8667 465.333 40.5333 467.333 38.5333C468.933 36.9333 474.133 36.9333 477.2 38.6667Z" fill="white"/>
</g>
<defs>
<clipPath id="clip0_41_2">
<rect width="788" height="788" fill="white"/>
</clipPath>
</defs>
</svg>
